# xmcd
#
# Track frame offsets:
#	182
#	24000
#	32137
#	53252
#	74027
#	87125
#	92057
#	109725
#	126962
#	138450
#	158482
#	181725
#	203322
#
# Disc length: 2880 seconds
#
# Revision: 0
# Processed by: cddbd v1.5.2PL0 Copyright (c) Steve Scherf et al.
# Submitted via: EZCDAudioConverter 5.3.0.1
#
DISCID=990b3e0d
DTITLE=Da Hoodstas - Hoodsta Madness 
DYEAR=1994
DGENRE=
TTITLE0=Rapp Music
TTITLE1=Jurrasic Ghetto
TTITLE2=Hoodsta Madness
TTITLE3=Deeper
TTITLE4=Trunk Of Funk
TTITLE5=My Nigga
TTITLE6=Bow Wow
TTITLE7=Victim Of The Gat
TTITLE8=Yellow Tape
TTITLE9=Slow Down
TTITLE10=Anyone Can Rhyme
TTITLE11=Toast To The West Coast
TTITLE12=My Niggas
EXTD=
EXTT0=
EXTT1=
EXTT2=
EXTT3=
EXTT4=
EXTT5=
EXTT6=
EXTT7=
EXTT8=
EXTT9=
EXTT10=
EXTT11=
EXTT12=
PLAYORDER=
